# xmcd
#
# Track frame offsets: 
#        150
#        24597
#        38197
#        74728
#        92806
#        113212
#        138852
#        164444
#        189753
#        212144
#        235627
#        278338
#
# Disc length: 4089 seconds
#
# Revision: 0
# Processed by: cddbd v1.5PL3 Copyright (c) Steve Scherf et al.
# Submitted via: ExactAudioCopy v0.95a4
#
DISCID=a00ff70c
DTITLE=Luther Allison - Hand Me Down My Moonshine
DYEAR=2003
DGENRE=Blues
TTITLE0=Good Morning Love
TTITLE1=One More
TTITLE2=Lightning Bolt
TTITLE3=I Need A Friend
TTITLE4=Castle
TTITLE5=She's Fine
TTITLE6=Stay With Me
TTITLE7=Farmers Child
TTITLE8=Don't Burn My Bread
TTITLE9=You're The One
TTITLE10=Hand Me Down My Moonshine
TTITLE11=Meet Me In My Hometown
EXTD=
EXTT0=
EXTT1=
EXTT2=
EXTT3=
EXTT4=
EXTT5=
EXTT6=
EXTT7=
EXTT8=
EXTT9=
EXTT10=
EXTT11=
PLAYORDER=
